<?xml version="1.0" encoding="UTF-8"?>
<svg version="1.1" xmlns="http://www.w3.org/2000/svg" width="1024" height="1024">
<path d="M0 0 C337.92 0 675.84 0 1024 0 C1024 337.92 1024 675.84 1024 1024 C686.08 1024 348.16 1024 0 1024 C0 686.08 0 348.16 0 0 Z " fill="#FEFCFA" transform="translate(0,0)"/>
<path d="M0 0 C14.18117249 13.17559029 22.51695218 30.06094324 27.77734375 48.5 C28.0697998 49.51852051 28.0697998 49.51852051 28.36816406 50.55761719 C31.77674929 63.33229726 32.28786711 75.99132474 32.22558594 89.12426758 C32.2148734 91.805081 32.22553774 94.48522251 32.23828125 97.16601562 C32.25046927 110.81251357 31.1722195 123.97516534 27.77734375 137.25 C27.5644873 138.08587646 27.35163086 138.92175293 27.13232422 139.78295898 C22.43795848 157.4143561 14.81300253 172.25635366 1.96484375 185.375 C1.37445312 186.00148438 0.7840625 186.62796875 0.17578125 187.2734375 C-15.1009721 202.14640002 -36.56985987 205.01507638 -56.86132812 204.84375 C-76.44201343 204.3343338 -94.33322557 197.65385408 -108.03515625 183.375 C-108.79054688 182.65054688 -109.5459375 181.92609375 -110.32421875 181.1796875 C-121.72998011 169.61714592 -127.95380499 153.85392585 -132.03515625 138.375 C-132.24543457 137.59141113 -132.45571289 136.80782227 -132.67236328 136.00048828 C-136.15063517 122.27191712 -136.40164798 108.51348286 -136.41015625 94.4375 C-136.41215027 93.56431122 -136.41414429 92.69112244 -136.41619873 91.79147339 C-136.41245361 77.29734282 -135.70663089 62.93200935 -131.84765625 48.875 C-131.6347998 48.08802734 -131.42194336 47.30105469 -131.20263672 46.49023438 C-126.41011272 29.55460586 -118.39967525 14.992286 -106.03515625 2.375 C-105.37128906 1.67503906 -104.70742188 0.97507813 -104.0234375 0.25390625 C-94.2884505 -9.25856676 -81.309313 -14.47743768 -68.03515625 -16.625 C-66.77703125 -16.851875 -65.51890625 -17.07875 -64.22265625 -17.3125 C-41.4697157 -19.54971382 -17.57346325 -15.57128194 0 0 Z " fill="#171918" transform="translate(551.03515625,234.625)"/>
<path d="M0 0 C7.79752011 6.68180979 14.04099802 13.96615918 19 23 C19.76376953 24.34771484 19.76376953 24.34771484 20.54296875 25.72265625 C31.91843549 46.98220464 35.23086026 70.43595001 35.25 94.25 C35.25067474 95.00499786 35.25134949 95.75999573 35.25204468 96.53787231 C35.23453832 108.90145086 34.59074639 120.87277933 32 133 C31.74259033 134.21381348 31.74259033 134.21381348 31.47998047 135.45214844 C26.0808226 159.93412075 15.04735707 183.06674117 -6.67578125 197.02734375 C-19.76762384 204.79629852 -33.71512615 207.57129008 -48.8125 207.4375 C-50.03936523 207.42847656 -51.26623047 207.41945313 -52.53027344 207.41015625 C-71.23069347 207.05405198 -89.21204354 201.64247067 -102.83203125 188.2734375 C-103.54746094 187.52320313 -104.26289063 186.77296875 -105 186 C-105.70511719 185.29101562 -106.41023438 184.58203125 -107.13671875 183.8515625 C-125.73987492 164.22080342 -133.12570589 133.33793931 -133.16796875 106.90625 C-133.17129715 106.15645874 -133.17462555 105.40666748 -133.17805481 104.63415527 C-133.18308539 103.05428676 -133.18546434 101.47440776 -133.18530273 99.89453125 C-133.18746911 97.53366502 -133.2056106 95.17328265 -133.22460938 92.8125 C-133.33800593 62.61819907 -126.81335652 28.63835559 -105.21899414 6.02783203 C-78.51071243 -20.61129307 -29.87809101 -23.11642968 0 0 Z " fill="#171918" transform="translate(359,232)"/>
<path d="M0 0 C6.79339586 -0.38244722 13.58399996 -0.64379283 20.38574219 -0.82397461 C22.69506485 -0.89911 25.00368073 -1.00126501 27.31054688 -1.1315918 C45.89789736 -2.15485915 45.89789736 -2.15485915 50.95574951 1.35855103 C54.22176744 4.806042 56.22487489 8.78985621 58.12469482 13.10562134 C59.35075109 15.75911283 60.97245007 18.04491623 62.6796875 20.41015625 C63.2159375 21.19197266 63.7521875 21.97378906 64.3046875 22.77929688 C65.08199219 23.90948242 65.08199219 23.90948242 65.875 25.0625 C69.28111341 30.02163893 72.67759537 34.98429253 76 40 C80.11585174 36.30958486 82.94923307 31.8738767 86 27.3125 C87.62580039 24.8946966 89.25728622 22.48981804 90.94628906 20.11547852 C92.58302241 17.63255481 93.93582776 15.23195563 95.29589844 12.60131836 C101.58611787 1.21851422 101.58611787 1.21851422 107.46899414 -0.8812561 C114.38417335 -2.1081854 121.28572398 -1.55371753 128.25 -1.0625 C130.3629755 -0.97709288 132.47628429 -0.89954934 134.58984375 -0.83007812 C139.73488383 -0.64397161 144.86372745 -0.35164691 150 0 C147.83230193 3.86884827 145.69475991 7.61358175 143.0390625 11.171875 C142.49241943 11.90865479 141.94577637 12.64543457 141.38256836 13.40454102 C140.8025708 14.17854248 140.22257324 14.95254395 139.625 15.75 C138.36841928 17.44135402 137.11191089 19.13276178 135.85546875 20.82421875 C135.21528809 21.68321777 134.57510742 22.5422168 133.91552734 23.42724609 C130.91054077 27.46325789 127.92298876 31.51205404 124.9375 35.5625 C124.36620361 36.33698486 123.79490723 37.11146973 123.20629883 37.90942383 C118.48795104 44.31532183 113.82053929 50.75725294 109.17358398 57.21508789 C108.66899658 57.91625732 108.16440918 58.61742676 107.64453125 59.33984375 C107.18256348 59.98808105 106.7205957 60.63631836 106.24462891 61.30419922 C105.24571575 62.6652135 104.17090065 63.97036577 103.07421875 65.25390625 C101.83056854 66.91969026 101.83056854 66.91969026 102.046875 68.83984375 C103.43372402 71.98298928 105.31108811 74.74253581 107.25 77.5625 C107.69327637 78.21669922 108.13655273 78.87089844 108.59326172 79.54492188 C110.05645406 81.70056733 111.52814863 83.85025974 113 86 C113.99777911 87.46718734 114.99517024 88.93463859 115.9921875 90.40234375 C122.04946267 99.30234203 128.17256352 108.15688362 134.3125 117 C134.95783691 117.93070312 135.60317383 118.86140625 136.26806641 119.8203125 C140.26897417 125.57129741 144.3541364 131.25018849 148.52026367 136.8828125 C150 139 150 139 150 140 C143.34932141 140.40801283 136.70188562 140.68671517 130.04150391 140.87890625 C127.78051265 140.95904429 125.5203426 141.06800853 123.26220703 141.20703125 C105.05279069 142.29943558 105.05279069 142.29943558 100.0737915 138.5491333 C96.80539724 134.82010047 94.81957949 130.55411896 92.90484619 126.01623535 C91.63365942 123.18369681 89.92797089 120.77517606 88.1015625 118.2734375 C87.52019531 117.44972656 86.93882812 116.62601562 86.33984375 115.77734375 C85.77394531 114.98457031 85.20804688 114.19179688 84.625 113.375 C83.44994552 111.71655331 82.27545128 110.05770951 81.1015625 108.3984375 C80.56692383 107.64401367 80.03228516 106.88958984 79.48144531 106.11230469 C77.60610818 103.43837311 75.79319885 100.72954899 74 98 C70.06198571 101.60748551 67.13733503 105.79320351 64.0625 110.125 C62.91292571 111.7318891 61.76318082 113.33865616 60.61328125 114.9453125 C60.02240723 115.77321289 59.4315332 116.60111328 58.82275391 117.45410156 C56.98894818 120.01543642 55.14325178 122.56773494 53.29296875 125.1171875 C52.6992749 125.93558105 52.10558105 126.75397461 51.49389648 127.59716797 C50.3469874 129.17743946 49.19938327 130.75720679 48.05102539 132.33642578 C47.53403076 133.05040527 47.01703613 133.76438477 46.484375 134.5 C46.02772461 135.1290625 45.57107422 135.758125 45.10058594 136.40625 C43.93259278 138.01793675 43.93259278 138.01793675 43 140 C28.15 140 13.3 140 -2 140 C1.95086338 134.07370492 5.93240109 128.24675195 10.125 122.5 C14.45984614 116.52964426 18.75781402 110.53654941 23 104.5 C27.22647902 98.48817977 31.50347621 92.51541451 35.8125 86.5625 C36.35793457 85.80565918 36.90336914 85.04881836 37.46533203 84.26904297 C39.75705344 81.08956923 42.05321724 77.91667616 44.41015625 74.78515625 C45.05855469 73.90730469 45.70695313 73.02945313 46.375 72.125 C47.19097656 71.04605469 47.19097656 71.04605469 48.0234375 69.9453125 C49.1917338 68.07697607 49.1917338 68.07697607 48.73876953 66.12255859 C47.88837269 63.67928359 46.76858254 62.11461945 45.15625 60.09375 C44.57439941 59.35664795 43.99254883 58.6195459 43.39306641 57.86010742 C42.76835449 57.08127197 42.14364258 56.30243652 41.5 55.5 C40.20496466 53.86128096 38.91069253 52.22195849 37.6171875 50.58203125 C36.9890918 49.78877441 36.36099609 48.99551758 35.71386719 48.17822266 C33.64215845 45.5452048 31.62457015 42.87563808 29.625 40.1875 C25.45835964 34.59296604 21.23159651 29.04553683 17 23.5 C6.89200686 10.24074662 6.89200686 10.24074662 3.5 5.75 C2.8090625 4.83734375 2.118125 3.9246875 1.40625 2.984375 C0 1 0 1 0 0 Z " fill="#D41822" transform="translate(600,296)"/>
<path d="M0 0 C0 69.96 0 139.92 0 212 C-15.84 212 -31.68 212 -48 212 C-48 157.22 -48 102.44 -48 46 C-64.335 53.92 -64.335 53.92 -81 62 C-81.66 62 -82.32 62 -83 62 C-86.79674075 28.52540235 -86.79674075 28.52540235 -80.88623047 19.92382812 C-74.48532641 14.44229511 -66.77737004 11.97702704 -59 9 C-44 0 -44 0 0 0 Z " fill="#171917" transform="translate(199,223)"/>
<path d="M0 0 C10.43827793 7.22031171 14.30981914 20.8785348 16.609375 32.73828125 C21.37635525 60.33909691 23.60531501 98.26781488 7.6875 122.78125 C1.97227533 130.29571207 -5.29697282 135.06982312 -14.73046875 136.37890625 C-23.2671521 136.75216039 -30.4000745 134.28083283 -37.1875 129.125 C-51.16064726 115.91556726 -52.44293263 93.59265188 -53.12988281 75.59765625 C-53.76976692 51.78621125 -54.44025559 22.15179336 -37.34375 3.16015625 C-27.03551437 -6.42181732 -12.11082858 -6.5122433 0 0 Z " fill="#FDFBF9" transform="translate(516,262)"/>
<path d="M0 0 C11.65048645 9.15038206 14.94804055 24.31583847 16.6887207 38.33764648 C17.4183806 45.70615987 17.366299 53.10715476 17.33105469 60.50439453 C17.32032595 63.17633749 17.33101956 65.84760841 17.34375 68.51953125 C17.35946012 87.95306671 16.73459149 111.64676091 2.6953125 126.6796875 C-3.91317674 132.68740499 -11.32912519 135.08295425 -20.14453125 134.953125 C-27.67964053 134.2133527 -34.62619705 131.23438832 -40.0859375 125.96484375 C-53.31613003 109.56725344 -54.16221105 87.38039096 -54.1796875 67.3046875 C-54.18036224 66.603367 -54.18103699 65.90204651 -54.18173218 65.17947388 C-54.14765365 42.76248817 -52.35296905 18.2223513 -36.6171875 0.7421875 C-26.48820085 -8.61443633 -10.81287069 -7.39827995 0 0 Z " fill="#FDFBF9" transform="translate(327.9296875,263.3203125)"/>
<path d="M0 0 C6.93 0 13.86 0 21 0 C22.6192374 6.57508522 24.23721932 13.15045683 25.85229492 19.7265625 C26.39945975 21.95296836 26.94728674 24.17921162 27.49584961 26.40527344 C31.15027434 41.2373474 34.66973555 56.09168091 38 71 C40.63985774 61.928354 43.11617849 52.83603111 45.41796875 43.671875 C45.72068192 42.47564514 46.02339508 41.27941528 46.33528137 40.04693604 C47.61438094 34.99223193 48.88849856 29.93627606 50.1628418 24.88037109 C51.1001857 21.16456493 52.04023636 17.44945113 52.98046875 13.734375 C53.26899216 12.58555847 53.55751556 11.43674194 53.8547821 10.25311279 C54.12208633 9.19731018 54.38939056 8.14150757 54.66479492 7.05371094 C54.89921799 6.12330994 55.13364105 5.19290894 55.37516785 4.23431396 C56 2 56 2 57 0 C64.26 0 71.52 0 79 0 C80.77204497 4.72545325 82.39502179 9.07324407 83.70166016 13.87768555 C83.99851715 14.9620842 84.29537415 16.04648285 84.60122681 17.16374207 C85.06545547 18.88286552 85.06545547 18.88286552 85.5390625 20.63671875 C85.86538666 21.83432327 86.19171082 23.0319278 86.52792358 24.26582336 C87.213776 26.78585699 87.89779377 29.30639058 88.58007812 31.82739258 C89.62465779 35.68623583 90.67512736 39.54341041 91.7265625 43.40039062 C92.3935749 45.85407271 93.06025312 48.30784566 93.7265625 50.76171875 C94.04009674 51.91387375 94.35363098 53.06602875 94.67666626 54.25309753 C95.11249527 55.86551079 95.11249527 55.86551079 95.55712891 57.51049805 C95.81233307 58.45233444 96.06753723 59.39417084 96.33047485 60.36454773 C97.60496766 65.38133461 98.10192972 69.80158407 98 75 C98.66 75 99.32 75 100 75 C100.11472656 73.74445313 100.22945312 72.48890625 100.34765625 71.1953125 C100.96983186 65.65072501 102.15749998 60.30042025 103.4375 54.875 C103.68975342 53.79420166 103.94200684 52.71340332 104.2019043 51.59985352 C106.78291275 40.68193938 109.54016949 29.80811389 112.3125 18.9375 C112.53686737 18.05423035 112.76123474 17.17096069 112.99240112 16.26092529 C113.63284957 13.744516 114.27837809 11.22947162 114.92578125 8.71484375 C115.21761795 7.56665916 115.21761795 7.56665916 115.51535034 6.39527893 C116.88483082 1.11516918 116.88483082 1.11516918 118 0 C119.56172745 -0.08685603 121.12729344 -0.10702219 122.69140625 -0.09765625 C123.63564453 -0.09443359 124.57988281 -0.09121094 125.55273438 -0.08789062 C126.54595703 -0.07951172 127.53917969 -0.07113281 128.5625 -0.0625 C129.55958984 -0.05798828 130.55667969 -0.05347656 131.58398438 -0.04882812 C134.05604849 -0.03700007 136.52799518 -0.02051849 139 0 C135.76129357 14.27329187 132.06319836 28.41634756 128.3125 42.5625 C128.00552185 43.72333099 127.6985437 44.88416199 127.38226318 46.08016968 C122.43714221 64.77320346 117.34186634 83.41652319 112 102 C104.08 102 96.16 102 88 102 C84.62635013 91.87905039 84.62635013 91.87905039 83.31420898 86.99291992 C83.02057968 85.90536911 82.72695038 84.8178183 82.42442322 83.6973114 C82.11807449 82.55325333 81.81172577 81.40919525 81.49609375 80.23046875 C80.83146247 77.77146214 80.16674644 75.31247843 79.50195312 72.85351562 C78.46474094 69.0047114 77.42882653 65.15556262 76.39477539 61.3059082 C75.39051781 57.57143654 74.38109576 53.83839021 73.37109375 50.10546875 C73.06272079 48.95128952 72.75434784 47.79711029 72.43663025 46.60795593 C72.00091454 45.00027092 72.00091454 45.00027092 71.55639648 43.36010742 C71.30341293 42.41906662 71.05042938 41.47802582 70.78977966 40.50846863 C70.05615563 38.17835943 69.16210062 36.14338726 68 34 C67.67314209 35.20720703 67.34628418 36.41441406 67.00952148 37.65820312 C61.18416649 59.15987398 55.34857066 80.64571686 49 102 C41.08 102 33.16 102 25 102 C21.73663389 89.14476768 18.47626618 76.28878525 15.22121429 63.43144512 C13.70974704 57.46171015 12.19695281 51.49231795 10.68115234 45.52368164 C9.21917781 39.76678842 7.76065458 34.00903106 6.30455017 28.25065041 C5.74759001 26.05064379 5.18937354 23.85095484 4.62989807 21.65158653 C3.84827373 18.57803737 3.07106878 15.50340298 2.29492188 12.4284668 C2.06115341 11.51352951 1.82738495 10.59859222 1.58653259 9.65592957 C1.37617874 8.81880432 1.16582489 7.98167908 0.94909668 7.1191864 C0.76473808 6.39189174 0.58037949 5.66459707 0.39043427 4.91526318 C0 3 0 3 0 0 Z " fill="#181918" transform="translate(763,488)"/>
<path d="M0 0 C257.4 0 514.8 0 780 0 C780 2.64 780 5.28 780 8 C522.6 8 265.2 8 0 8 C0 5.36 0 2.72 0 0 Z " fill="#303130" transform="translate(122,635)"/>
<path d="M0 0 C55.87824074 0 55.87824074 0 65.27734375 8.08203125 C72.8933119 16.56148786 74.00403769 25.61102129 73.44921875 36.5546875 C72.75076059 44.95377886 70.03304199 50.68614197 63.9765625 56.52734375 C61.47553054 58.39076084 58.81498778 59.67180154 56 61 C61.84233728 73.3765303 68.65079935 85.37623627 75.86328125 97.00390625 C77 99 77 99 77 101 C73.29334204 101.2917568 69.58962752 101.46835908 65.875 101.625 C64.82828125 101.70878906 63.7815625 101.79257812 62.703125 101.87890625 C59.5420862 101.97893912 57.03644314 101.89842114 54 101 C51.09093377 98.10404636 49.67307817 94.70891949 48 91 C46.88190509 88.95225314 45.74994148 86.91202839 44.60546875 84.87890625 C43.46379061 82.77471367 42.32448667 80.66923128 41.1875 78.5625 C40.60291016 77.48806641 40.01832031 76.41363281 39.41601562 75.30664062 C38.85978516 74.27861328 38.30355469 73.25058594 37.73046875 72.19140625 C37.22926514 71.26529541 36.72806152 70.33918457 36.21166992 69.38500977 C35 67 35 67 34 64 C29.71 64 25.42 64 21 64 C21 76.21 21 88.42 21 101 C14.07 101 7.14 101 0 101 C0 67.67 0 34.34 0 0 Z " fill="#161816" transform="translate(445,488)"/>
<path d="M0 0 C6.93 0 13.86 0 21 0 C27.06722106 6.76460279 27.06722106 6.76460279 28.625 10.19921875 C31.34493094 15.83285194 34.64608456 21.06147665 37.9375 26.375 C39.13431052 28.35195848 40.3296355 30.32981709 41.5234375 32.30859375 C45.42088098 38.72632649 49.48289796 45.02881456 53.59765625 51.30859375 C55.31426597 53.92978358 56.99254079 56.57182725 58.65014648 59.23071289 C59.09253159 59.93990372 59.53491669 60.64909454 59.9907074 61.379776 C60.49030724 62.18178688 60.49030724 62.18178688 61 63 C61.01030746 62.34346939 61.02061493 61.68693878 61.03123474 61.01051331 C61.13981479 54.14794994 61.25436749 47.28550433 61.37231445 40.4230957 C61.41549899 37.86550369 61.45718495 35.30788591 61.49731445 32.75024414 C61.55541817 29.06388599 61.6189952 25.37765562 61.68359375 21.69140625 C61.70866249 19.98930748 61.70866249 19.98930748 61.73423767 18.25282288 C61.75418289 17.17238205 61.77412811 16.09194122 61.79467773 14.97875977 C61.81022202 14.03944107 61.8257663 13.10012238 61.84178162 12.13233948 C62.04672228 8.07501243 62.55137196 4.03765233 63 0 C69.6 0 76.2 0 83 0 C83 33.66 83 67.32 83 102 C62 102 62 102 57.9375 98.25 C56.92094001 96.18465477 55.94902778 94.09723423 55 92 C53.61404267 89.60849206 52.16848077 87.25876811 50.71899414 84.90527344 C49.11207714 82.29147982 47.53986859 79.65960802 45.9765625 77.01953125 C43.4982399 72.8378536 41.00426793 68.6661912 38.5 64.5 C33 55.33333333 27.5 46.16666667 22 37 C21.67 58.45 21.34 79.9 21 102 C14.07 102 7.14 102 0 102 C0 68.34 0 34.68 0 0 Z " fill="#171917" transform="translate(167,488)"/>
<path d="M0 0 C20.46 0 40.92 0 62 0 C62 5.94 62 11.88 62 18 C48.47 18 34.94 18 21 18 C21 25.59 21 33.18 21 41 C33.54 41 46.08 41 59 41 C59 46.94 59 52.88 59 59 C46.46 59 33.92 59 21 59 C21 66.92 21 74.84 21 83 C35.19 83 49.38 83 64 83 C64 88.94 64 94.88 64 101 C42.88 101.33 21.76 101.66 0 102 C0 68.34 0 34.68 0 0 Z " fill="#1B1D1B" transform="translate(683,488)"/>
<path d="M0 0 C20.46 0 40.92 0 62 0 C62 5.94 62 11.88 62 18 C48.47 18 34.94 18 21 18 C21 25.59 21 33.18 21 41 C33.54 41 46.08 41 59 41 C59 46.94 59 52.88 59 59 C46.46 59 33.92 59 21 59 C21 66.92 21 74.84 21 83 C35.19 83 49.38 83 64 83 C64 88.94 64 94.88 64 101 C42.88 101 21.76 101 0 101 C0 67.67 0 34.34 0 0 Z " fill="#171917" transform="translate(360,488)"/>
<path d="M0 0 C7.26 0 14.52 0 22 0 C22.47832275 1.59166992 22.95664551 3.18333984 23.44946289 4.82324219 C25.05822997 10.17269545 26.67122264 15.52086306 28.28688908 20.86823654 C29.26316447 24.09994428 30.23741444 27.33222852 31.20874023 30.56542969 C34.95385076 43.02815044 38.70295399 55.47859353 42.99609375 67.765625 C43.28710464 68.59858093 43.57811554 69.43153687 43.87794495 70.28973389 C44.95536904 73.92243515 44.95536904 73.92243515 47 77 C47.45101074 75.47306519 47.45101074 75.47306519 47.91113281 73.9152832 C55.23657024 49.15028518 62.91925764 24.52877822 71 0 C77.93 0 84.86 0 92 0 C89.72076276 9.71518903 86.77878693 19.12052522 83.6328125 28.578125 C83.11057877 30.15918553 82.58876727 31.74038558 82.06735229 33.32171631 C80.70193821 37.4595086 79.33161432 41.59565671 77.95996094 45.73138428 C75.77156551 52.33256389 73.59091307 58.93630557 71.40993881 65.53993988 C70.65766012 67.81546485 69.90338099 70.09031804 69.14871216 72.36505127 C65.99722243 81.87990438 62.96719752 91.42591463 60 101 C46.635 101.495 46.635 101.495 33 102 C29.62460414 92.99894438 29.62460414 92.99894438 28.19750977 88.55419922 C27.71479866 87.05546768 27.71479866 87.05546768 27.22233582 85.52645874 C26.88212906 84.46327423 26.5419223 83.40008972 26.19140625 82.3046875 C25.82811722 81.17439117 25.46482819 80.04409485 25.0905304 78.87954712 C23.91247688 75.21201701 22.73737856 71.54354831 21.5625 67.875 C20.75348491 65.35349415 19.94440251 62.83200989 19.13525391 60.31054688 C12.69471882 40.22656491 6.31924135 20.12244697 0 0 Z " fill="#171917" transform="translate(530,488)"/>
<path d="M0 0 C25.41 0 50.82 0 77 0 C77 6.27 77 12.54 77 19 C67.76 19 58.52 19 49 19 C49 46.06 49 73.12 49 101 C42.07 101 35.14 101 28 101 C28 73.61 28 46.22 28 18 C18.76 18 9.52 18 0 18 C0 12.06 0 6.12 0 0 Z " fill="#161816" transform="translate(267,488)"/>
<path d="M0 0 C35.27027027 0 35.27027027 0 41.875 5.3125 C47.14392737 11.97614344 47.9760118 17.64358439 47 26 C45.67691276 30.61959275 43.73693222 33.77906048 39.75 36.5 C38.8425 36.995 37.935 37.49 37 38 C37.50470643 43.2783881 40.2897889 47.21337859 43 51.625 C43.91915994 53.13650746 44.83593077 54.64947105 45.75 56.1640625 C46.15734375 56.82873535 46.5646875 57.4934082 46.984375 58.17822266 C48 60 48 60 49 63 C43.84968585 63.58973063 39.13303828 63.86360265 34 63 C30.82581017 60.19408634 29.61424108 56.85537189 28 53 C26.90124714 51.15081687 25.77689676 49.31655442 24.625 47.5 C22 43.24615385 22 43.24615385 22 41 C19.36 41 16.72 41 14 41 C14 48.26 14 55.52 14 63 C9.38 63 4.76 63 0 63 C0 42.21 0 21.42 0 0 Z " fill="#171918" transform="translate(259,685)"/>
<path d="M0 0 C35.82692308 0 35.82692308 0 42.4375 6.25 C46.51954687 11.63242191 47.58484517 17.33276506 47 24 C45.74127826 29.88166339 43.26400023 33.21448584 38.62109375 36.96875 C37 38 37 38 35 38 C35.39380859 38.68626465 35.78761719 39.3725293 36.19335938 40.07958984 C37.96667367 43.17554477 39.73340991 46.27520366 41.5 49.375 C42.12003906 50.45523438 42.74007812 51.53546875 43.37890625 52.6484375 C44.25869141 54.1953125 44.25869141 54.1953125 45.15625 55.7734375 C45.70087891 56.72653809 46.24550781 57.67963867 46.80664062 58.66162109 C48 61 48 61 48 63 C43.05 63 38.1 63 33 63 C31.16155559 59.71109457 29.3290654 56.41911532 27.5 53.125 C26.97535156 52.18785156 26.45070313 51.25070312 25.91015625 50.28515625 C25.16572266 48.94130859 25.16572266 48.94130859 24.40625 47.5703125 C23.94541016 46.74289551 23.48457031 45.91547852 23.00976562 45.06298828 C22 43 22 43 22 41 C19.36 41 16.72 41 14 41 C14 48.26 14 55.52 14 63 C9.38 63 4.76 63 0 63 C0 42.21 0 21.42 0 0 Z " fill="#181A19" transform="translate(417,685)"/>
<path d="M0 0 C14 0 14 0 17.3515625 3.26953125 C18.16221836 4.75623592 18.91797427 6.27380955 19.625 7.8125 C20.49690373 9.45607337 21.37202347 11.09794386 22.25 12.73828125 C22.68957031 13.59760254 23.12914062 14.45692383 23.58203125 15.34228516 C26.00719964 19.88780566 28.83029684 24.17557772 31.625 28.5 C32.6400299 30.09247122 33.65321172 31.68612274 34.6640625 33.28125 C35.09154785 33.95220703 35.5190332 34.62316406 35.95947266 35.31445312 C37 37 37 37 38 39 C38.33 26.13 38.66 13.26 39 0 C43.29 0 47.58 0 52 0 C52 21.12 52 42.24 52 64 C38 64 38 64 34.97265625 61.37890625 C33.97412109 59.578125 33.97412109 59.578125 33.0625 57.5625 C32.28733763 56.11471536 31.50981936 54.66819064 30.73046875 53.22265625 C30.3132959 52.40812988 29.89612305 51.59360352 29.46630859 50.75439453 C27.19232293 46.48281507 24.66040174 42.37306514 22.14575195 38.23999023 C19.07099961 33.17578948 16.04002086 28.0851258 13 23 C13 36.2 13 49.4 13 63 C8.71 63 4.42 63 0 63 C0 42.21 0 21.42 0 0 Z " fill="#171917" transform="translate(714,685)"/>
<path d="M0 0 C6.93 0 13.86 0 21 0 C21 33.66 21 67.32 21 102 C14.07 101.67 7.14 101.34 0 101 C0 67.67 0 34.34 0 0 Z " fill="#181A18" transform="translate(639,488)"/>
<path d="M0 0 C4.62 0 9.24 0 14 0 C14 8.25 14 16.5 14 25 C21.92 25 29.84 25 38 25 C38 16.75 38 8.5 38 0 C42.62 0 47.24 0 52 0 C52 21.12 52 42.24 52 64 C47.38 64 42.76 64 38 64 C38 55.09 38 46.18 38 37 C30.08 37 22.16 37 14 37 C14 45.91 14 54.82 14 64 C9.38 64 4.76 64 0 64 C0 42.88 0 21.76 0 0 Z " fill="#171917" transform="translate(852,685)"/>
<path d="M0 0 C4.62 0 9.24 0 14 0 C14 8.25 14 16.5 14 25 C21.92 25 29.84 25 38 25 C38 16.75 38 8.5 38 0 C42.62 0 47.24 0 52 0 C52 21.12 52 42.24 52 64 C47.38 64 42.76 64 38 64 C38 55.09 38 46.18 38 37 C30.08 37 22.16 37 14 37 C14 45.91 14 54.82 14 64 C9.38 64 4.76 64 0 64 C0 42.88 0 21.76 0 0 Z " fill="#171917" transform="translate(123,685)"/>
<path d="M0 0 C3.6520778 3.30298213 6.2456588 7.37877193 8.125 11.921875 C7.795 12.581875 7.465 13.241875 7.125 13.921875 C4.40234375 14.7734375 4.40234375 14.7734375 1.0625 15.546875 C-0.04222656 15.80726563 -1.14695312 16.06765625 -2.28515625 16.3359375 C-3.13980469 16.52929688 -3.99445312 16.72265625 -4.875 16.921875 C-5.16632812 16.37917969 -5.45765625 15.83648438 -5.7578125 15.27734375 C-8.45312081 10.57326793 -10.42633039 7.49360662 -15.875 5.921875 C-20.80269705 5.6471293 -24.05266836 6.40411063 -28.25 9.046875 C-34.07149867 15.42280212 -34.42961135 20.95317673 -34.22265625 29.40234375 C-33.57674524 35.94128559 -31.98046803 40.95996161 -27.125 45.484375 C-21.1549225 48.1249862 -16.98090515 48.49731076 -10.875 46.484375 C-9.555 45.96875 -8.235 45.453125 -6.875 44.921875 C-6.38 39.971875 -6.38 39.971875 -5.875 34.921875 C-10.165 34.921875 -14.455 34.921875 -18.875 34.921875 C-18.875 31.291875 -18.875 27.661875 -18.875 23.921875 C-10.295 23.921875 -1.715 23.921875 7.125 23.921875 C7.36824096 28.30021222 7.54636803 32.66506338 7.6875 37.046875 C7.76291016 38.284375 7.83832031 39.521875 7.91601562 40.796875 C8.13343951 49.7837289 8.13343951 49.7837289 5.22875977 53.06201172 C2.91044701 54.63199778 0.69671111 55.82268019 -1.875 56.921875 C-2.61733887 57.26420166 -3.35967773 57.60652832 -4.12451172 57.95922852 C-12.10099757 61.40686305 -22.15064237 61.25467696 -30.25 58.359375 C-39.13944967 54.17009412 -44.43736694 48.09873234 -47.875 38.921875 C-50.49509409 28.72520309 -49.91953914 16.9525692 -44.62109375 7.7421875 C-40.02873493 1.11017068 -34.0262461 -4.28542027 -25.94140625 -5.8359375 C-16.20302058 -6.97729839 -8.12148828 -5.69632164 0 0 Z " fill="#171917" transform="translate(828.875,690.078125)"/>
<path d="M0 0 C6.6 0 13.2 0 20 0 C20 33.33 20 66.66 20 101 C13.4 101 6.8 101 0 101 C0 67.67 0 34.34 0 0 Z " fill="#151716" transform="translate(124,488)"/>
<path d="M0 0 C4.95 0 9.9 0 15 0 C17.80100445 6.13507601 20.28496668 12.28756632 22.53125 18.64453125 C22.84904419 19.53557053 23.16683838 20.4266098 23.4942627 21.34465027 C24.16139228 23.21721945 24.82685766 25.09038229 25.49072266 26.96411133 C26.49406445 29.79574865 27.50242259 32.62555837 28.51171875 35.45507812 C31.77034583 44.60683203 34.97649135 53.76750038 38 63 C33.38 63 28.76 63 24 63 C19 51.25 19 51.25 19 49 C11.41 49 3.82 49 -4 49 C-4.99 52.63 -5.98 56.26 -7 60 C-7.33 60.99 -7.66 61.98 -8 63 C-12.62 63 -17.24 63 -22 63 C-20.68948503 56.56513364 -18.93256721 50.52549638 -16.69921875 44.35546875 C-16.38096634 43.46442947 -16.06271393 42.5733902 -15.7348175 41.65534973 C-15.06414787 39.78127306 -14.39086525 37.9081296 -13.71508789 36.03588867 C-12.69484112 33.20784897 -11.68367956 30.37668797 -10.67382812 27.54492188 C-7.3463061 18.25220417 -3.91480261 9.063866 0 0 Z " fill="#161816" transform="translate(497,685)"/>
<path d="M0 0 C5.28 0 10.56 0 16 0 C18.16986792 5.95460198 20.33859414 11.90961819 22.50634766 17.86499023 C23.24107425 19.88300293 23.97609117 21.90090995 24.71142578 23.91870117 C28.33981493 33.87573362 31.96363089 43.83460815 35.5234375 53.81640625 C35.7773526 54.52159897 36.0312677 55.22679169 36.2928772 55.95335388 C38 60.76802387 38 60.76802387 38 63 C33.38 63 28.76 63 24 63 C22.35 58.71 20.7 54.42 19 50 C11.74 50 4.48 50 -3 50 C-4.65 54.29 -6.3 58.58 -8 63 C-12.62 63 -17.24 63 -22 63 C-15.13577086 41.83174057 -7.57428393 20.92188377 0 0 Z " fill="#161817" transform="translate(209,685)"/>
<path d="M0 0 C4.62 0 9.24 0 14 0 C14.33 7.92 14.66 15.84 15 24 C25.01665619 13.50099894 25.01665619 13.50099894 33.25 1.69140625 C35 0 35 0 38.79296875 -0.390625 C40.25832231 -0.36410276 41.72341551 -0.31649117 43.1875 -0.25 C43.93708984 -0.23195313 44.68667969 -0.21390625 45.45898438 -0.1953125 C47.3065371 -0.14824109 49.15343159 -0.07649766 51 0 C46.70562744 5.96440634 42.04327096 11.53053263 37.22753906 17.07470703 C36.24033365 18.21313177 35.25747702 19.35534768 34.27978516 20.50195312 C33.22475435 21.73691478 32.15182511 22.95656236 31.07421875 24.171875 C29.80419175 25.90885723 29.80419175 25.90885723 30.22119141 27.79296875 C31.21250434 30.60220664 32.67292136 32.70285228 34.38671875 35.140625 C35.07830078 36.12933594 35.76988281 37.11804688 36.48242188 38.13671875 C37.57393555 39.67779297 37.57393555 39.67779297 38.6875 41.25 C39.39583984 42.26191406 40.10417969 43.27382813 40.83398438 44.31640625 C44.4428033 49.45472461 48.0999555 54.52998851 51.97973633 59.46777344 C53 61 53 61 53 63 C40.1123407 64.51027257 40.1123407 64.51027257 35.57421875 61.265625 C33.4826267 58.61540899 31.74838042 55.88893943 30 53 C28.6875217 51.07875517 27.34490367 49.18212745 25.99145508 47.28955078 C25.08953941 46.02586976 24.19971482 44.75346002 23.32299805 43.47216797 C22.26462068 41.94605677 21.13786401 40.46780228 20 39 C19.34 39 18.68 39 18 39 C15.24794103 41.91697162 14.60895042 44.02642608 14.48828125 47.984375 C14.45283203 48.91894531 14.41738281 49.85351562 14.38085938 50.81640625 C14.34702148 52.26853516 14.34702148 52.26853516 14.3125 53.75 C14.27833984 54.73355469 14.24417969 55.71710937 14.20898438 56.73046875 C14.12665691 59.15324858 14.06164775 61.5766058 14 64 C9.38 64 4.76 64 0 64 C0 42.88 0 21.76 0 0 Z " fill="#171918" transform="translate(321,685)"/>
<path d="M0 0 C4.2018783 4.2018783 6 8.06432369 6 14 C-0.435 14.495 -0.435 14.495 -7 15 C-7.598125 14.05125 -8.19625 13.1025 -8.8125 12.125 C-10.81562526 8.86035803 -10.81562526 8.86035803 -14 7 C-17.89857963 6.5747004 -20.13677199 6.46048249 -23.5 8.5625 C-25.60481417 11.98282303 -24.87885144 14.19164377 -24 18 C-23.18917969 18.24234375 -22.37835937 18.4846875 -21.54296875 18.734375 C-18.0213182 19.8002995 -14.51098053 20.89948658 -11 22 C-9.97648438 22.30035156 -8.95296875 22.60070312 -7.8984375 22.91015625 C-1.50460772 24.94455664 2.32810192 27.30995946 6 33 C8.39677101 37.79354201 7.83133582 45.23521457 6.31640625 50.2734375 C3.53449262 55.56022772 -0.65333448 58.0222227 -6 60.25 C-14.13353899 62.23819842 -23.60630578 62.30541577 -31.09375 58.32421875 C-35.07891149 55.55583812 -38.3235367 52.57507031 -39.5859375 47.76953125 C-39.875 45.5625 -39.875 45.5625 -40 42 C-37.89758397 41.86503749 -35.7927039 41.76802693 -33.6875 41.6875 C-32.51574219 41.62949219 -31.34398437 41.57148437 -30.13671875 41.51171875 C-29.10160156 41.67285156 -28.06648437 41.83398438 -27 42 C-25.20703125 44.45703125 -25.20703125 44.45703125 -24 47 C-21.43435275 48.28282363 -19.48966931 48.20391953 -16.625 48.25 C-15.19027344 48.28867187 -15.19027344 48.28867187 -13.7265625 48.328125 C-10.57130271 47.94840892 -9.23823515 47.22782475 -7 45 C-6.33333333 42 -6.33333333 42 -7 39 C-10.76395252 35.16917522 -15.93318322 34.67105765 -20.98046875 33.62695312 C-28.65268742 31.90034271 -33.30941423 28.16476987 -38 22 C-40.29344076 17.41311848 -39.75481248 10.67309388 -38.38671875 5.828125 C-35.95808074 0.99224666 -31.80862493 -1.83298467 -27 -4 C-17.23819408 -6.48019825 -8.36994157 -5.78603915 0 0 Z " fill="#171917" transform="translate(661,689)"/>
<path d="M0 0 C16.5 0 33 0 50 0 C50 3.96 50 7.92 50 12 C44.06 12 38.12 12 32 12 C32 29.16 32 46.32 32 64 C27.38 64 22.76 64 18 64 C18 46.84 18 29.68 18 12 C12.06 12 6.12 12 0 12 C0 8.04 0 4.08 0 0 Z " fill="#151615" transform="translate(536,685)"/>
<path d="M0 0 C19.98861048 -0.44419134 19.98861048 -0.44419134 27 3 C30.45859928 6.45859928 31.1619102 10.0336286 31.25 14.8125 C31.19807283 19.26525463 30.56378222 22.24589032 28 26 C24.11993652 29.6297368 20.40844361 30.13082336 15.234375 30.09765625 C14.03119629 30.09390991 14.03119629 30.09390991 12.80371094 30.09008789 C11.79598633 30.08098389 10.78826172 30.07187988 9.75 30.0625 C6.5325 30.041875 3.315 30.02125 0 30 C0 20.1 0 10.2 0 0 Z " fill="#FCFBF9" transform="translate(466,505)"/>
<path d="M0 0 C4.29 0 8.58 0 13 0 C13 21.12 13 42.24 13 64 C8.71 64 4.42 64 0 64 C0 42.88 0 21.76 0 0 Z " fill="#161817" transform="translate(387,685)"/>
<path d="M0 0 C4.29 0 8.58 0 13 0 C13 20.79 13 41.58 13 63 C8.71 63 4.42 63 0 63 C0 42.21 0 21.42 0 0 Z " fill="#161716" transform="translate(683,685)"/>
<path d="M0 0 C20.46 0 40.92 0 62 0 C62 5.94 62 11.88 62 18 C41.705 17.505 41.705 17.505 21 17 C21 16.67 21 16.34 21 16 C34.2 16 47.4 16 61 16 C61 11.38 61 6.76 61 2 C41.53 2 22.06 2 2 2 C1.67 34.34 1.34 66.68 1 100 C21.13 100 41.26 100 62 100 C62 95.05 62 90.1 62 85 C48.47 85 34.94 85 21 85 C21 84.67 21 84.34 21 84 C35.19 84 49.38 84 64 84 C64 89.61 64 95.22 64 101 C42.88 101.33 21.76 101.66 0 102 C0 68.34 0 34.68 0 0 Z " fill="#020302" transform="translate(683,488)"/>
<path d="M0 0 C6.6 0 13.2 0 20 0 C20 11.88 20 23.76 20 36 C19.67 36 19.34 36 19 36 C19 24.78 19 13.56 19 2 C13.39 2 7.78 2 2 2 C2 34.34 2 66.68 2 100 C7.61 100 13.22 100 19 100 C19 81.19 19 62.38 19 43 C19.99 42.505 19.99 42.505 21 42 C21 61.8 21 81.6 21 102 C14.07 101.67 7.14 101.34 0 101 C0 67.67 0 34.34 0 0 Z " fill="#121312" transform="translate(639,488)"/>
<path d="M0 0 C4.62 0 9.24 0 14 0 C13.67 0.99 13.34 1.98 13 3 C9.7 3 6.4 3 3 3 C3 22.14 3 41.28 3 61 C6.3 61 9.6 61 13 61 C12.99476318 60.2479126 12.98952637 59.4958252 12.98413086 58.72094727 C12.96342773 55.33480658 12.95036123 51.94867916 12.9375 48.5625 C12.92912109 47.37849609 12.92074219 46.19449219 12.91210938 44.97460938 C12.90888672 43.84990234 12.90566406 42.72519531 12.90234375 41.56640625 C12.89448853 40.00321655 12.89448853 40.00321655 12.88647461 38.40844727 C13 36 13 36 14 35 C15.85369611 34.91262355 17.71067541 34.89301847 19.56640625 34.90234375 C20.69111328 34.90556641 21.81582031 34.90878906 22.97460938 34.91210938 C24.15861328 34.92048828 25.34261719 34.92886719 26.5625 34.9375 C27.75037109 34.94201172 28.93824219 34.94652344 30.16210938 34.95117188 C33.10812226 34.96300325 36.05403681 34.97948713 39 35 C40.37365621 37.74731243 40.0128639 39.81667064 39.87890625 42.8828125 C39.83056641 44.04941406 39.78222656 45.21601562 39.73242188 46.41796875 C39.67634766 47.64128906 39.62027344 48.86460937 39.5625 50.125 C39.51029297 51.35605469 39.45808594 52.58710937 39.40429688 53.85546875 C39.27432696 56.90385408 39.13777661 59.95195753 39 63 C43.29 63 47.58 63 52 63 C52 63.33 52 63.66 52 64 C47.38 64 42.76 64 38 64 C38 55.09 38 46.18 38 37 C30.08 37 22.16 37 14 37 C14 45.91 14 54.82 14 64 C9.38 64 4.76 64 0 64 C0 42.88 0 21.76 0 0 Z " fill="#292928" transform="translate(852,685)"/>
<path d="M0 0 C4.29 0 8.58 0 13 0 C13 8.25 13 16.5 13 25 C20.92 25 28.84 25 37 25 C37 16.75 37 8.5 37 0 C41.62 0 46.24 0 51 0 C51.04514054 7.78847925 51.0818524 15.57688735 51.10362434 23.36546135 C51.11407249 26.98180873 51.12825032 30.59806216 51.15087891 34.21435547 C51.1725708 37.70268811 51.18456085 41.19093024 51.18975449 44.6793251 C51.19526169 46.66139971 51.21088034 48.64343779 51.22659302 50.62545776 C51.22681961 52.42709885 51.22681961 52.42709885 51.22705078 54.26513672 C51.231492 55.32658905 51.23593323 56.38804138 51.24050903 57.48165894 C51 60 51 60 49 62 C49 42.2 49 22.4 49 2 C45.7 2 42.4 2 39 2 C39.02320313 3.63710938 39.04640625 5.27421875 39.0703125 6.9609375 C39.08906703 9.09895379 39.10726757 11.23697499 39.125 13.375 C39.14175781 14.45523438 39.15851563 15.53546875 39.17578125 16.6484375 C39.18544922 18.1953125 39.18544922 18.1953125 39.1953125 19.7734375 C39.21102295 21.20308838 39.21102295 21.20308838 39.22705078 22.66162109 C39 25 39 25 37 27 C34.6015625 27.25878906 34.6015625 27.25878906 31.625 27.265625 C30.55765625 27.26820313 29.4903125 27.27078125 28.390625 27.2734375 C26.71226562 27.26183594 26.71226562 27.26183594 25 27.25 C23.88109375 27.25773438 22.7621875 27.26546875 21.609375 27.2734375 C20.54203125 27.27085937 19.4746875 27.26828125 18.375 27.265625 C17.39273438 27.26336914 16.41046875 27.26111328 15.3984375 27.25878906 C13 27 13 27 11 25 C10.77294922 22.66162109 10.77294922 22.66162109 10.8046875 19.7734375 C10.81113281 18.7421875 10.81757813 17.7109375 10.82421875 16.6484375 C10.84097656 15.56820312 10.85773438 14.48796875 10.875 13.375 C10.88402344 12.28703125 10.89304688 11.1990625 10.90234375 10.078125 C10.92596482 7.38532351 10.96183667 4.69263465 11 2 C7.7 2 4.4 2 1 2 C1 14.21 1 26.42 1 39 C0.67 39 0.34 39 0 39 C0 26.13 0 13.26 0 0 Z " fill="#050605" transform="translate(124,685)"/>
<path d="M0 0 C4.62 0 9.24 0 14 0 C14 8.25 14 16.5 14 25 C13.34 25.33 12.68 25.66 12 26 C11.03911617 23.11734851 10.88329059 21.32337729 10.90234375 18.33203125 C10.90556641 17.43935547 10.90878906 16.54667969 10.91210938 15.62695312 C10.92048828 14.69818359 10.92886719 13.76941406 10.9375 12.8125 C10.94201172 11.87212891 10.94652344 10.93175781 10.95117188 9.96289062 C10.96295374 7.64186288 10.97940442 5.32096356 11 3 C8.36 3 5.72 3 3 3 C3 22.14 3 41.28 3 61 C6.3 61 9.6 61 13 61 C13 54.73 13 48.46 13 42 C13.33 42 13.66 42 14 42 C14 49.26 14 56.52 14 64 C9.38 64 4.76 64 0 64 C0 42.88 0 21.76 0 0 Z " fill="#2A2B29" transform="translate(321,685)"/>
<path d="M0 0 C13.15623237 -0.49182177 13.15623237 -0.49182177 16.921875 1.703125 C19.9555605 5.05614582 19.64449173 7.3129581 19.43359375 11.65234375 C19 14 19 14 17.125 16.5625 C11.78685123 20.17360064 6.33221074 19.0620805 0 19 C0 12.73 0 6.46 0 0 Z " fill="#FCFAF9" transform="translate(273,696)"/>
<path d="M0 0 C13.48539786 -0.40864842 13.48539786 -0.40864842 18 3 C19.53214888 6.06429776 19.22938548 8.6165642 19 12 C17.34860695 15.5386994 16.28394771 16.81070153 13 19 C8.65339644 19.27064779 4.35919984 19.08632079 0 19 C0 12.73 0 6.46 0 0 Z " fill="#FBFAF8" transform="translate(431,696)"/>
<path d="M0 0 C0.33 0 0.66 0 1 0 C1.02464574 5.96313166 1.042834 11.92623395 1.05493164 17.8894043 C1.05997278 19.91968298 1.06680557 21.94995802 1.07543945 23.98022461 C1.08751467 26.89177347 1.09323034 29.8032745 1.09765625 32.71484375 C1.10281754 33.6283812 1.10797882 34.54191864 1.11329651 35.48313904 C1.11349168 37.65575427 1.06211805 39.82827296 1 42 C0.67 42.33 0.34 42.66 0 43 C-0.23363881 44.84891946 -0.41303635 46.70488031 -0.5625 48.5625 C-0.68818359 50.08037109 -0.68818359 50.08037109 -0.81640625 51.62890625 C-0.87699219 52.41136719 -0.93757812 53.19382812 -1 54 C-1.33 54 -1.66 54 -2 54 C-2 37.17 -2 20.34 -2 3 C-6.95 3 -11.9 3 -17 3 C-17 34.68 -17 66.36 -17 99 C-12.05 99 -7.1 99 -2 99 C-2 85.14 -2 71.28 -2 57 C-1.67 57 -1.34 57 -1 57 C-1 71.19 -1 85.38 -1 100 C-6.61 100 -12.22 100 -18 100 C-18 67.66 -18 35.32 -18 2 C-12.39 2 -6.78 2 -1 2 C-0.67 1.34 -0.34 0.68 0 0 Z " fill="#242523" transform="translate(659,488)"/>
<path d="M0 0 C30 0 30 0 33 2 C22.77 2 12.54 2 2 2 C2 21.8 2 41.6 2 62 C5.3 62 8.6 62 12 62 C12 55.4 12 48.8 12 42 C12.66 42.33 13.32 42.66 14 43 C14 49.6 14 56.2 14 63 C9.38 63 4.76 63 0 63 C0 42.21 0 21.42 0 0 Z " fill="#060706" transform="translate(259,685)"/>
<path d="M0 0 C15.84 0 31.68 0 48 0 C48 6.27 48 12.54 48 19 C38.76 19 29.52 19 20 19 C20 46.06 20 73.12 20 101 C19.67 101 19.34 101 19 101 C19 73.28 19 45.56 19 17 C27.91 17 36.82 17 46 17 C46 12.05 46 7.1 46 2 C30.82 1.67 15.64 1.34 0 1 C0 0.67 0 0.34 0 0 Z " fill="#434341" transform="translate(296,488)"/>
<path d="M0 0 C0.66 0.66 1.32 1.32 2 2 C4.44012949 2.24287489 4.44012949 2.24287489 7.125 2.125 C8.03507813 2.10695313 8.94515625 2.08890625 9.8828125 2.0703125 C10.58148438 2.04710937 11.28015625 2.02390625 12 2 C12 2.33 12 2.66 12 3 C9.03 3 6.06 3 3 3 C3 22.14 3 41.28 3 61 C5.64 61 8.28 61 11 61 C11 54.07 11 47.14 11 40 C11.33 40 11.66 40 12 40 C12 47.26 12 54.52 12 62 C12.66 62 13.32 62 14 62 C14 62.66 14 63.32 14 64 C9.38 64 4.76 64 0 64 C0 42.88 0 21.76 0 0 Z " fill="#2C2E2C" transform="translate(123,685)"/>
<path d="M0 0 C30 0 30 0 35 2 C31.47001672 3.17666109 28.86362584 3.02013769 25.14453125 2.87890625 C24.48289474 2.85529526 23.82125824 2.83168427 23.13957214 2.80735779 C21.03031998 2.73090143 18.9214518 2.64680043 16.8125 2.5625 C15.38087804 2.5092612 13.94923746 2.45652093 12.51757812 2.40429688 C9.01148424 2.27531118 5.50569429 2.13946876 2 2 C2.00523682 2.75168457 2.01047363 3.50336914 2.01586914 4.27783203 C2.13093231 23.5472722 1.77595212 42.74565614 1 62 C4.63 62 8.26 62 12 62 C12 55.07 12 48.14 12 41 C12.33 41 12.66 41 13 41 C13.33 48.26 13.66 55.52 14 63 C9.38 63 4.76 63 0 63 C0 42.21 0 21.42 0 0 Z " fill="#040505" transform="translate(417,685)"/>
<path d="M0 0 C0.66 0 1.32 0 2 0 C4.31 7.26 6.62 14.52 9 22 C3.72 22 -1.56 22 -7 22 C-4.69 14.74 -2.38 7.48 0 0 Z " fill="#F8F7F6" transform="translate(216,701)"/>
<path d="M0 0 C1.69946788 2.54920182 2.56531331 4.32099564 3.5078125 7.16015625 C3.77207031 7.95357422 4.03632813 8.74699219 4.30859375 9.56445312 C4.57800781 10.38880859 4.84742188 11.21316406 5.125 12.0625 C5.40214844 12.89072266 5.67929687 13.71894531 5.96484375 14.57226562 C8 20.73287408 8 20.73287408 8 23 C3.05 23 -1.9 23 -7 23 C-4.95285106 15.22083402 -2.61516053 7.6065329 0 0 Z " fill="#F9F9F7" transform="translate(504,700)"/>
<path d="M0 0 C12.54 0 25.08 0 38 0 C38 5.61 38 11.22 38 17 C25.13 17 12.26 17 -1 17 C-1 25.25 -1 33.5 -1 42 C-1.33 42 -1.66 42 -2 42 C-2.02886537 37.68751391 -2.04675255 33.37505238 -2.0625 29.0625 C-2.07087891 27.83080078 -2.07925781 26.59910156 -2.08789062 25.33007812 C-2.09111328 24.16025391 -2.09433594 22.99042969 -2.09765625 21.78515625 C-2.10289307 20.70113525 -2.10812988 19.61711426 -2.11352539 18.50024414 C-2 16 -2 16 -1 15 C1.73894085 14.91141354 4.4525327 14.88476521 7.19140625 14.90234375 C8.42116432 14.90446617 8.42116432 14.90446617 9.67576599 14.90663147 C12.30471382 14.91224711 14.93357773 14.92480221 17.5625 14.9375 C19.34049357 14.94251299 21.11848846 14.94707624 22.89648438 14.95117188 C27.26435545 14.96222161 31.63216348 14.97949669 36 15 C36 10.38 36 5.76 36 1 C24.12 1 12.24 1 0 1 C0 0.67 0 0.34 0 0 Z " fill="#020302" transform="translate(704,530)"/>
<path d="M0 0 C0.99 0 1.98 0 3 0 C3 17.16 3 34.32 3 52 C-1.62 52 -6.24 52 -11 52 C-10.67 51.01 -10.34 50.02 -10 49 C-6.7 49 -3.4 49 0 49 C0 32.83 0 16.66 0 0 Z " fill="#3A3B39" transform="translate(565,697)"/>
<path d="M0 0 C0.33 0 0.66 0 1 0 C1 16.17 1 32.34 1 49 C0.67 49 0.34 49 0 49 C-0.33 51.64 -0.66 54.28 -1 57 C-1.33 57 -1.66 57 -2 57 C-2 41.82 -2 26.64 -2 11 C-1.67 11 -1.34 11 -1 11 C-0.67 7.37 -0.34 3.74 0 0 Z " fill="#E4E3E1" transform="translate(682,685)"/>
<path d="M0 0 C0.99 0.33 1.98 0.66 3 1 C2.98952637 2.04978027 2.97905273 3.09956055 2.96826172 4.18115234 C2.93211547 8.06865033 2.90911922 11.95613341 2.89013672 15.84375 C2.88006683 17.52769466 2.86641012 19.21162179 2.84912109 20.89550781 C2.82491574 23.31319501 2.81352704 25.73065143 2.8046875 28.1484375 C2.79436493 28.9036972 2.78404236 29.65895691 2.77340698 30.43710327 C2.77300682 32.2929398 2.87777284 34.1481928 3 36 C3.66 36.66 4.32 37.32 5 38 C3.02 38.66 1.04 39.32 -1 40 C-1.02464775 34.46411467 -1.04283496 28.928261 -1.05493164 23.39233398 C-1.05997244 21.5075627 -1.06680498 19.62279535 -1.07543945 17.73803711 C-1.08751617 15.03498364 -1.09323068 12.33198169 -1.09765625 9.62890625 C-1.10281754 8.78099014 -1.10797882 7.93307404 -1.11329651 7.0594635 C-1.11349195 5.03928932 -1.06206211 3.01922066 -1 1 C-0.67 0.67 -0.34 0.34 0 0 Z " fill="#323332" transform="translate(117,245)"/>
<path d="M0 0 C0.66 0.33 1.32 0.66 2 1 C1.67 11.89 1.34 22.78 1 34 C4.63 34 8.26 34 12 34 C12 34.33 12 34.66 12 35 C7.38 35.33 2.76 35.66 -2 36 C-2.24077143 23.81429023 -1.73064677 12.06817081 0 0 Z " fill="#222321" transform="translate(153,399)"/>
<path d="M0 0 C8.25 0 16.5 0 25 0 C26.37365621 2.74731243 26.0128639 4.81667064 25.87890625 7.8828125 C25.83056641 9.04941406 25.78222656 10.21601562 25.73242188 11.41796875 C25.67634766 12.64128906 25.62027344 13.86460937 25.5625 15.125 C25.51029297 16.35605469 25.45808594 17.58710937 25.40429688 18.85546875 C25.27432696 21.90385408 25.13777661 24.95195753 25 28 C29.29 28 33.58 28 38 28 C38 28.33 38 28.66 38 29 C33.38 29 28.76 29 24 29 C24 20.09 24 11.18 24 2 C16.08 2 8.16 2 0 2 C0 1.34 0 0.68 0 0 Z " fill="#333433" transform="translate(866,720)"/>
<path d="M0 0 C2.79192205 -0.05380578 5.5828141 -0.09357669 8.375 -0.125 C9.1690625 -0.14175781 9.963125 -0.15851563 10.78125 -0.17578125 C12.85492015 -0.19335473 14.92883241 -0.10335168 17 0 C17.66 0.66 18.32 1.32 19 2 C13.39 2 7.78 2 2 2 C2.58910156 4.19140625 3.17820312 6.3828125 3.78515625 8.640625 C4.35004207 10.76811707 4.91162684 12.89645482 5.47290039 15.02490234 C5.8643122 16.50205646 6.25914191 17.97830936 6.6574707 19.45361328 C7.22991599 21.57616321 7.7899323 23.70166611 8.34765625 25.828125 C8.52780777 26.48556702 8.70795929 27.14300903 8.89356995 27.82037354 C9.76528995 31.19505278 10.28569751 33.69288007 9 37 C6.4709499 28.04467506 3.97026924 19.0842731 1.6875 10.0625 C1.51637695 9.39541016 1.34525391 8.72832031 1.16894531 8.04101562 C0.47689414 5.26993336 0 2.87039231 0 0 Z " fill="#080808" transform="translate(763,488)"/>
<path d="M0 0 C1 3 1 3 -1 10 C-8.92 10 -16.84 10 -25 10 C-25 8.68 -25 7.36 -25 6 C-17.41 6 -9.82 6 -2 6 C-1.34 4.02 -0.68 2.04 0 0 Z " fill="#282927" transform="translate(876,580)"/>
<path d="M0 0 C3.96 0 7.92 0 12 0 C12 8.25 12 16.5 12 25 C11.34 25.33 10.68 25.66 10 26 C10 18.08 10 10.16 10 2 C6.7 2 3.4 2 0 2 C0 1.34 0 0.68 0 0 Z " fill="#050706" transform="translate(323,685)"/>
<path d="M0 0 C7.26 0 14.52 0 22 0 C22.33 2.64 22.66 5.28 23 8 C21 5 21 5 21 2 C15.06 2 9.12 2 3 2 C3.515625 3.588125 4.03125 5.17625 4.5625 6.8125 C6.125 11.625 6.125 11.625 5 15 C3.35 10.05 1.7 5.1 0 0 Z " fill="#080908" transform="translate(530,488)"/>
<path d="M0 0 C0.88913086 -0.00902344 1.77826172 -0.01804688 2.69433594 -0.02734375 C3.94778809 -0.02154297 3.94778809 -0.02154297 5.2265625 -0.015625 C5.97760254 -0.01336914 6.72864258 -0.01111328 7.50244141 -0.00878906 C9.375 0.25 9.375 0.25 11.375 2.25 C3.785 2.58 -3.805 2.91 -11.625 3.25 C-11.625 3.58 -11.625 3.91 -11.625 4.25 C-13.08292884 4.30399736 -14.54142712 4.34279177 -16 4.375 C-16.81210937 4.39820313 -17.62421875 4.42140625 -18.4609375 4.4453125 C-20.625 4.25 -20.625 4.25 -22.625 2.25 C-15.05423219 0.52657318 -7.74223459 0.033288 0 0 Z " fill="#2E2E2D" transform="translate(310.625,216.75)"/>
<path d="M0 0 C1.57043101 0.01330874 3.14079971 0.03717648 4.7109375 0.0703125 C5.51273438 0.07933594 6.31453125 0.08835937 7.140625 0.09765625 C9.12252273 0.12125027 11.10426731 0.15712185 13.0859375 0.1953125 C13.13991085 2.6331088 13.17959366 5.06970935 13.2109375 7.5078125 C13.23607422 8.54325195 13.23607422 8.54325195 13.26171875 9.59960938 C13.29811544 13.36666646 13.22972614 14.97962954 11.0859375 18.1953125 C11.0859375 12.9153125 11.0859375 7.6353125 11.0859375 2.1953125 C5.4759375 2.1953125 -0.1340625 2.1953125 -5.9140625 2.1953125 C-3.9140625 0.1953125 -3.9140625 0.1953125 0 0 Z " fill="#0E0E0E" transform="translate(236.9140625,487.8046875)"/>
<path d="M0 0 C7.26 0 14.52 0 22 0 C22.33 0.99 22.66 1.98 23 3 C19.541824 3.0868329 16.08392656 3.14033282 12.625 3.1875 C11.64015625 3.21263672 10.6553125 3.23777344 9.640625 3.26367188 C8.22910156 3.27817383 8.22910156 3.27817383 6.7890625 3.29296875 C5.91975098 3.3086792 5.05043945 3.32438965 4.15478516 3.34057617 C3.44370605 3.22818604 2.73262695 3.1157959 2 3 C1.34 2.01 0.68 1.02 0 0 Z " fill="#373736" transform="translate(227,587)"/>
<path d="M0 0 C0.33 0 0.66 0 1 0 C3.38776806 23.58238484 3.38776806 23.58238484 3 35 C2.67 35 2.34 35 2 35 C1.67 33.02 1.34 31.04 1 29 C0.67 29 0.34 29 0 29 C0 19.43 0 9.86 0 0 Z " fill="#F2F2F0" transform="translate(463,312)"/>
<path d="M0 0 C0.69867188 -0.00386719 1.39734375 -0.00773438 2.1171875 -0.01171875 C5.87074298 -0.00463657 9.35151145 0.22712977 13 1.125 C9.12450848 3.72579405 5.04433874 3.38521984 0.5625 3.3125 C-0.18837891 3.31185547 -0.93925781 3.31121094 -1.71289062 3.31054688 C-5.60058598 3.27977356 -9.2043157 3.06826151 -13 2.125 C-13 1.795 -13 1.465 -13 1.125 C-8.66349094 0.05781222 -4.43884995 -0.02456928 0 0 Z " fill="#252625" transform="translate(499,216.875)"/>
<path d="M0 0 C0.33 0 0.66 0 1 0 C1 3.63 1 7.26 1 11 C6.67675932 11.38435046 6.67675932 11.38435046 12 10 C12 11.32 12 12.64 12 14 C7.38 14 2.76 14 -2 14 C-1.34 9.38 -0.68 4.76 0 0 Z " fill="#2D2E2D" transform="translate(163,735)"/>
<path d="M0 0 C5.91326127 -0.52796976 9.3431563 0.09192268 14.23828125 3.515625 C18.16758099 6.82634319 19.7817623 9.87243856 20.75 14.875 C20.87375 16.421875 20.87375 16.421875 21 18 C17.37 18 13.74 18 10 18 C10 17.67 10 17.34 10 17 C13.96 16.505 13.96 16.505 18 16 C17.54655595 11.12547646 16.52912227 8.43625063 13 5 C8.71550303 2.77840898 4.78184232 1.5831515 0 1 C0 0.67 0 0.34 0 0 Z " fill="#070706" transform="translate(646,685)"/>
<path d="M0 0 C0.33 0 0.66 0 1 0 C1 7.59 1 15.18 1 23 C4.96 23 8.92 23 13 23 C13 23.66 13 24.32 13 25 C8.38 25 3.76 25 -1 25 C-0.67 16.75 -0.34 8.5 0 0 Z " fill="#202020" transform="translate(124,724)"/>
<path d="M0 0 C3.63 0 7.26 0 11 0 C11 0.33 11 0.66 11 1 C10.05125 1.12375 9.1025 1.2475 8.125 1.375 C4.91332809 1.71687177 4.91332809 1.71687177 3 4 C2.53927893 6.02713674 2.53927893 6.02713674 2.3671875 8.3515625 C2.28339844 9.20234375 2.19960938 10.053125 2.11328125 10.9296875 C2.03464844 11.81914063 1.95601563 12.70859375 1.875 13.625 C1.74544922 14.97078125 1.74544922 14.97078125 1.61328125 16.34375 C1.4009076 18.5618748 1.19682915 20.78045069 1 23 C0.67 23 0.34 23 0 23 C0 15.41 0 7.82 0 0 Z " fill="#EFEEEC" transform="translate(466,552)"/>
<path d="M0 0 C0.87454834 0.00523682 1.74909668 0.01047363 2.65014648 0.01586914 C3.59438477 0.0190918 4.53862305 0.02231445 5.51147461 0.02563477 C6.50469727 0.03401367 7.49791992 0.04239258 8.52124023 0.05102539 C9.51833008 0.05553711 10.51541992 0.06004883 11.54272461 0.06469727 C14.01478872 0.07652532 16.48673541 0.0930069 18.95874023 0.11352539 C18.29874023 1.43352539 17.63874023 2.75352539 16.95874023 4.11352539 C16.95874023 3.45352539 16.95874023 2.79352539 16.95874023 2.11352539 C13.99893491 2.20022676 11.04227154 2.30705562 8.08374023 2.42602539 C6.82110352 2.45986328 6.82110352 2.45986328 5.53295898 2.49438477 C4.72729492 2.52983398 3.92163086 2.5652832 3.09155273 2.60180664 C2.3479248 2.62799072 1.60429688 2.6541748 0.83813477 2.68115234 C-1.44859802 2.9808213 -1.44859802 2.9808213 -3.04125977 6.11352539 C-3.08398077 4.44740634 -3.08189809 2.77969654 -3.04125977 1.11352539 C-2.04125977 0.11352539 -2.04125977 0.11352539 0 0 Z " fill="#060706" transform="translate(883.041259765625,487.886474609375)"/>
<path d="M0 0 C0.33 0 0.66 0 1 0 C1 7.92 1 15.84 1 24 C5.62 24 10.24 24 15 24 C15 24.33 15 24.66 15 25 C10.05 25 5.1 25 0 25 C-0.22786458 21.71223958 -0.45572917 18.42447917 -0.68359375 15.13671875 C-0.8867371 11.97409042 -0.8867371 11.97409042 -2 9 C-1.66015625 6.73828125 -1.66015625 6.73828125 -1.0625 4.3125 C-0.86785156 3.50425781 -0.67320312 2.69601562 -0.47265625 1.86328125 C-0.31667969 1.24839844 -0.16070312 0.63351562 0 0 Z " fill="#DFDEDD" transform="translate(416,724)"/>
<path d="M0 0 C4.875 4.625 4.875 4.625 6 8 C1.05 8 -3.9 8 -9 8 C-9.66 6.68 -10.32 5.36 -11 4 C-10.01 4.495 -10.01 4.495 -9 5 C-7.12620395 5.07033769 -5.24998898 5.0843022 -3.375 5.0625 C-2.37210937 5.05347656 -1.36921875 5.04445313 -0.3359375 5.03515625 C0.43492187 5.02355469 1.20578125 5.01195312 2 5 C1.34 3.35 0.68 1.7 0 0 Z " fill="#070807" transform="translate(368,740)"/>
<path d="M0 0 C0.99 0.33 1.98 0.66 3 1 C3.88082622 3.71318044 4.57876229 6.28883517 5.1875 9.0625 C5.36474609 9.82111328 5.54199219 10.57972656 5.72460938 11.36132812 C6.16136967 13.23821697 6.58219156 15.1188016 7 17 C6.34 17.33 5.68 17.66 5 18 C5 16.68 5 15.36 5 14 C4.34 14 3.68 14 3 14 C2.49528803 12.23050388 1.99639315 10.45934777 1.5 8.6875 C1.2215625 7.70136719 0.943125 6.71523438 0.65625 5.69921875 C0 3 0 3 0 0 Z " fill="#1F1F1E" transform="translate(843,499)"/>
<path d="M0 0 C0.66 0 1.32 0 2 0 C2.99 3.3 3.98 6.6 5 10 C0.38 10 -4.24 10 -9 10 C-9 9.34 -9 8.68 -9 8 C-3.555 7.505 -3.555 7.505 2 7 C1.34 4.69 0.68 2.38 0 0 Z " fill="#070807" transform="translate(242,738)"/>
<path d="M0 0 C6.27 0 12.54 0 19 0 C18.34 1.32 17.68 2.64 17 4 C17 3.34 17 2.68 17 2 C11.06 2 5.12 2 -1 2 C-0.67 1.34 -0.34 0.68 0 0 Z " fill="#050605" transform="translate(603,488)"/>
<path d="M0 0 C0.35707031 0.49113281 0.71414063 0.98226562 1.08203125 1.48828125 C3.90553095 3.71372806 6.15218954 3.29250922 9.6875 3.1875 C10.86699219 3.16042969 12.04648437 3.13335938 13.26171875 3.10546875 C14.16535156 3.07066406 15.06898438 3.03585937 16 3 C16.33 3.99 16.66 4.98 17 6 C12.05 6 7.1 6 2 6 C1.34 4.02 0.68 2.04 0 0 Z " fill="#070807" transform="translate(448,742)"/>
<path d="M0 0 C0.99 0.495 0.99 0.495 2 1 C2 1.66 2 2.32 2 3 C6.62 2.67 11.24 2.34 16 2 C16.33 2.99 16.66 3.98 17 5 C12.05 5 7.1 5 2 5 C1.34 3.35 0.68 1.7 0 0 Z " fill="#0B0B0A" transform="translate(291,743)"/>
<path d="M0 0 C0.33 0.66 0.66 1.32 1 2 C1.66 2 2.32 2 3 2 C4.76615118 6.70973649 5.48594831 11.03083364 6 16 C5.34 16 4.68 16 4 16 C3.32586789 14.08594633 2.6609668 12.16863974 2 10.25 C1.62875 9.18265625 1.2575 8.1153125 0.875 7.015625 C0 4 0 4 0 0 Z " fill="#121312" transform="translate(420,372)"/>
<path d="M0 0 C4.95 0 9.9 0 15 0 C14.67 0.99 14.34 1.98 14 3 C9.38 3 4.76 3 0 3 C0 2.01 0 1.02 0 0 Z " fill="#212222" transform="translate(637,747)"/>
<path d="M0 0 C1.66297454 3.32594908 2.63931995 5.39319953 3 9 C2.0625 11.3125 2.0625 11.3125 1 13 C0.34 12.34 -0.32 11.68 -1 11 C-1.99 11.495 -1.99 11.495 -3 12 C-2.01 8.04 -1.02 4.08 0 0 Z " fill="#F1F1F0" transform="translate(831,519)"/>
<path d="M0 0 C2.475 0.495 2.475 0.495 5 1 C4.9278125 1.71542969 4.855625 2.43085938 4.78125 3.16796875 C5.06090779 6.78853839 6.3432338 8.42397383 8.5 11.3125 C9.1496875 12.19550781 9.799375 13.07851563 10.46875 13.98828125 C10.9740625 14.65214844 11.479375 15.31601562 12 16 C11.67 16.66 11.34 17.32 11 18 C9.72651788 16.27278316 8.45632943 14.54313762 7.1875 12.8125 C6.12595703 11.36810547 6.12595703 11.36810547 5.04296875 9.89453125 C0 2.74952199 0 2.74952199 0 0 Z " fill="#CC1115" transform="translate(675,393)"/>
<path d="M0 0 C2.475 0.495 2.475 0.495 5 1 C4.34 4.63 3.68 8.26 3 12 C2.34 12 1.68 12 1 12 C0.67 8.04 0.34 4.08 0 0 Z " fill="#E0E0DF" transform="translate(860,551)"/>
<path d="M0 0 C5.94 0 11.88 0 18 0 C18 0.33 18 0.66 18 1 C16.7625 1.144375 15.525 1.28875 14.25 1.4375 C11.42557206 1.78931471 8.75150252 2.266266 6 3 C4.00211562 3.34578768 2.00240549 3.68143549 0 4 C0 2.68 0 1.36 0 0 Z " fill="#EDECEA" transform="translate(466,505)"/>
<path d="M0 0 C5.94 0 11.88 0 18 0 C18.33 1.32 18.66 2.64 19 4 C18.01 5.485 18.01 5.485 17 7 C16.34 7 15.68 7 15 7 C15.33 5.02 15.66 3.04 16 1 C8.08 1.495 8.08 1.495 0 2 C0 1.34 0 0.68 0 0 Z " fill="#202120" transform="translate(602,490)"/>
<path d="M0 0 C4.62 0 9.24 0 14 0 C12.35 1.65 10.7 3.3 9 5 C9 4.34 9 3.68 9 3 C5.7 2.67 2.4 2.34 -1 2 C-0.67 1.34 -0.34 0.68 0 0 Z " fill="#050605" transform="translate(358,685)"/>
<path d="M0 0 C0.33 0 0.66 0 1 0 C1.98419339 4.05979772 2.23183367 7.82699392 2 12 C1.34 12.99 0.68 13.98 0 15 C-1.23689062 12.52621876 -1.13310087 10.82084683 -1.125 8.0625 C-1.12757813 7.18722656 -1.13015625 6.31195312 -1.1328125 5.41015625 C-1 3 -1 3 0 0 Z " fill="#262726" transform="translate(462,697)"/>
<path d="M0 0 C0.08121924 1.60332791 0.13929134 3.20784026 0.1875 4.8125 C0.22230469 5.70582031 0.25710938 6.59914063 0.29296875 7.51953125 C0 10 0 10 -1.44921875 11.82421875 C-3 13 -3 13 -4 13 C-4.15808824 4.9375 -4.15808824 4.9375 -3 1 C-1 0 -1 0 0 0 Z " fill="#212322" transform="translate(420,292)"/>
<path d="M0 0 C2.8203125 -0.29296875 2.8203125 -0.29296875 6.125 -0.1875 C7.76855469 -0.14689453 7.76855469 -0.14689453 9.4453125 -0.10546875 C10.28835938 -0.07066406 11.13140625 -0.03585937 12 0 C12 0.99 12 1.98 12 3 C7.38 3 2.76 3 -2 3 C-1.34 2.01 -0.68 1.02 0 0 Z " fill="#20201F" transform="translate(639,684)"/>
<path d="M0 0 C0.33 1.32 0.66 2.64 1 4 C0.34 4 -0.32 4 -1 4 C-1.33 4.99 -1.66 5.98 -2 7 C-4.64 7.33 -7.28 7.66 -10 8 C-10 7.34 -10 6.68 -10 6 C-7.8125 4.4921875 -7.8125 4.4921875 -5 2.875 C-4.071875 2.33617187 -3.14375 1.79734375 -2.1875 1.2421875 C-1.465625 0.83226562 -0.74375 0.42234375 0 0 Z " fill="#121312" transform="translate(131,237)"/>
<path d="M0 0 C-1.423125 0.37125 -1.423125 0.37125 -2.875 0.75 C-6.48322971 2.19329188 -6.4213071 2.73736801 -8 6 C-10.625 6.75 -10.625 6.75 -13 7 C-11.78836152 3.36508457 -10.89228938 3.04753785 -7.625 1.25 C-6.83351563 0.80140625 -6.04203125 0.3528125 -5.2265625 -0.109375 C-3 -1 -3 -1 0 0 Z " fill="#101110" transform="translate(466,225)"/>
<path d="M0 0 C1.82976016 3.10996778 2.20629302 5.18182882 1.9765625 8.765625 C1.89921875 10.09980469 1.89921875 10.09980469 1.8203125 11.4609375 C1.75585938 12.38132812 1.69140625 13.30171875 1.625 14.25 C1.56828125 15.18585937 1.5115625 16.12171875 1.453125 17.0859375 C1.31197212 19.39143448 1.1605965 21.69578928 1 24 C0.67 24 0.34 24 0 24 C-0.19682269 20.56296699 -0.38085152 17.12536573 -0.5625 13.6875 C-0.61857422 12.71103516 -0.67464844 11.73457031 -0.73242188 10.72851562 C-0.78076172 9.79072266 -0.82910156 8.85292969 -0.87890625 7.88671875 C-0.9260376 7.02264404 -0.97316895 6.15856934 -1.02172852 5.26831055 C-1 3 -1 3 0 0 Z " fill="#1F201E" transform="translate(782,702)"/>
<path d="M0 0 C1 2 1 2 0.3125 4.4375 C-1.10829685 7.21143671 -2.39746148 8.35172561 -5 10 C-5.66 9.67 -6.32 9.34 -7 9 C-4.69 6.03 -2.38 3.06 0 0 Z " fill="#CC1217" transform="translate(636,383)"/>
<path d="M0 0 C4.29 0 8.58 0 13 0 C12.67 0.99 12.34 1.98 12 3 C10.56344146 3.08131463 9.1255517 3.13933559 7.6875 3.1875 C6.48673828 3.23970703 6.48673828 3.23970703 5.26171875 3.29296875 C3 3 3 3 0 0 Z " fill="#222222" transform="translate(478,488)"/>
<path d="M0 0 C0.66 0 1.32 0 2 0 C2.33 2.31 2.66 4.62 3 7 C1.35 7.33 -0.3 7.66 -2 8 C-1.34 5.36 -0.68 2.72 0 0 Z " fill="#E8E9E8" transform="translate(216,701)"/>
<path d="M0 0 C-2.45250093 1.22625047 -3.84310435 1.03425355 -6.5703125 0.87890625 C-7.91416016 0.80639648 -7.91416016 0.80639648 -9.28515625 0.73242188 C-10.22230469 0.67634766 -11.15945313 0.62027344 -12.125 0.5625 C-13.54232422 0.48418945 -13.54232422 0.48418945 -14.98828125 0.40429688 C-17.3258419 0.27443239 -19.66299545 0.1394613 -22 0 C-22 -0.33 -22 -0.66 -22 -1 C-18.70926338 -1.22531972 -15.41750581 -1.42735982 -12.125 -1.625 C-10.71927734 -1.72167969 -10.71927734 -1.72167969 -9.28515625 -1.8203125 C-8.38925781 -1.871875 -7.49335937 -1.9234375 -6.5703125 -1.9765625 C-5.74289551 -2.02893066 -4.91547852 -2.08129883 -4.06298828 -2.13525391 C-2 -2 -2 -2 0 0 Z " fill="#020201" transform="translate(843,490)"/>
<path d="M0 0 C0.33 0 0.66 0 1 0 C1.125 6.625 1.125 6.625 0 10 C-0.66 10 -1.32 10 -2 10 C-2.33 10.99 -2.66 11.98 -3 13 C-4 11 -4 11 -3.0625 7.875 C-2.711875 6.92625 -2.36125 5.9775 -2 5 C-1.34 5 -0.68 5 0 5 C0 3.35 0 1.7 0 0 Z " fill="#F2F2F1" transform="translate(465,704)"/>
<path d="M0 0 C3.3 0.33 6.6 0.66 10 1 C10 1.99 10 2.98 10 4 C7.03 3.67 4.06 3.34 1 3 C0.67 2.01 0.34 1.02 0 0 Z " fill="#242625" transform="translate(478,435)"/>
<path d="M0 0 C0.66 0 1.32 0 2 0 C2.33 0.99 2.66 1.98 3 3 C1.35 4.65 -0.3 6.3 -2 8 C-2 4.23312136 -1.76462683 3.08809695 0 0 Z " fill="#1F201F" transform="translate(560,406)"/>
<path d="M0 0 C0.66 0.99 1.32 1.98 2 3 C-2.455 5.97 -2.455 5.97 -7 9 C-5.04783565 5.09567131 -3.12613393 2.96160056 0 0 Z " fill="#0F100F" transform="translate(523,385)"/>
<path d="M0 0 C0.33 0 0.66 0 1 0 C1 3.96 1 7.92 1 12 C-2 9 -2 9 -2.3125 5.4375 C-2 2 -2 2 0 0 Z " fill="#222322" transform="translate(228,309)"/>
<path d="M0 0 C0.66 0.99 1.32 1.98 2 3 C1.34 4.32 0.68 5.64 0 7 C-1.32 7 -2.64 7 -4 7 C-2.92598892 4.08482708 -2.22189824 2.22189824 0 0 Z " fill="#CD1219" transform="translate(618,408)"/>
<path d="M0 0 C0 0.66 0 1.32 0 2 C0.66 2.33 1.32 2.66 2 3 C0.54207116 3.05399736 -0.91642712 3.09279177 -2.375 3.125 C-3.18710937 3.14820313 -3.99921875 3.17140625 -4.8359375 3.1953125 C-7 3 -7 3 -9 1 C-5.846632 0.29925156 -3.27275026 0 0 0 Z " fill="#272828" transform="translate(297,218)"/>
<path d="M0 0 C2.34058637 2.12780579 3.70700306 4.11562221 5 7 C4.01 7.33 3.02 7.66 2 8 C1.34 7.67 0.68 7.34 0 7 C0 4.69 0 2.38 0 0 Z " fill="#E8E7E6" transform="translate(726,707)"/>
<path d="M0 0 C3.63 0 7.26 0 11 0 C10.67 1.65 10.34 3.3 10 5 C9.34 4.67 8.68 4.34 8 4 C8 3.01 8 2.02 8 1 C5.36 1 2.72 1 0 1 C0 0.67 0 0.34 0 0 Z " fill="#252725" transform="translate(357,687)"/>
<path d="M0 0 C0.33 0 0.66 0 1 0 C1.98248524 4.0527516 2.08159574 7.83861737 2 12 C0.48046875 10.79296875 0.48046875 10.79296875 -1 9 C-1.07421875 6.73828125 -1.07421875 6.73828125 -0.6875 4.3125 C-0.56761719 3.50425781 -0.44773438 2.69601562 -0.32421875 1.86328125 C-0.21722656 1.24839844 -0.11023438 0.63351562 0 0 Z " fill="#F6F6F6" transform="translate(227,541)"/>
<path d="M0 0 C2.31282587 3.46923881 2.42478586 4.92205575 2 9 C0.5 10.875 0.5 10.875 -1 12 C-1.14285714 3.42857143 -1.14285714 3.42857143 0 0 Z " fill="#1E1F1F" transform="translate(587,531)"/>
<path d="M0 0 C0.99 0.33 1.98 0.66 3 1 C4.125 7.625 4.125 7.625 3 11 C2.49384702 9.73160474 1.99530901 8.46016898 1.5 7.1875 C1.2215625 6.47980469 0.943125 5.77210938 0.65625 5.04296875 C0 3 0 3 0 0 Z " fill="#202120" transform="translate(276,369)"/>
<path d="M0 0 C0 3 0 3 -1.53125 4.60546875 C-2.1809375 5.12753906 -2.830625 5.64960938 -3.5 6.1875 C-4.1496875 6.71730469 -4.799375 7.24710938 -5.46875 7.79296875 C-5.9740625 8.19128906 -6.479375 8.58960938 -7 9 C-7.33 8.01 -7.66 7.02 -8 6 C-7.236875 5.566875 -6.47375 5.13375 -5.6875 4.6875 C-3.41906232 3.26313215 -1.7800277 1.96739903 0 0 Z " fill="#242625" transform="translate(258,236)"/>
<path d="M0 0 C0.99 0 1.98 0 3 0 C3.185625 0.9590625 3.185625 0.9590625 3.375 1.9375 C3.684375 2.9584375 3.684375 2.9584375 4 4 C4.66 4.33 5.32 4.66 6 5 C4.68 5.33 3.36 5.66 2 6 C1.34 4.02 0.68 2.04 0 0 Z " fill="#212220" transform="translate(782,730)"/>
<path d="M0 0 C1.98 0.495 1.98 0.495 4 1 C3.34 1 2.68 1 2 1 C2.33 2.65 2.66 4.3 3 6 C2.01 6.495 2.01 6.495 1 7 C0.34 6.67 -0.32 6.34 -1 6 C-0.67 4.02 -0.34 2.04 0 0 Z " fill="#1E201F" transform="translate(359,416)"/>
<path d="M0 0 C1.46726798 3.81489674 0.43336419 6.29011622 -1 10 C-1.99 9.67 -2.98 9.34 -4 9 C-3.67 8.01 -3.34 7.02 -3 6 C-2.34 6 -1.68 6 -1 6 C-0.67 4.02 -0.34 2.04 0 0 Z " fill="#222322" transform="translate(235,274)"/>
<path d="M0 0 C2.46278801 1.231394 3.42497687 2.78064923 5 5 C3.02 5.33 1.04 5.66 -1 6 C-1.042721 4.33388095 -1.04063832 2.66617115 -1 1 C-0.67 0.67 -0.34 0.34 0 0 Z " fill="#222321" transform="translate(539,227)"/>
<path d="M0 0 C3.63 0.66 7.26 1.32 11 2 C11 2.33 11 2.66 11 3 C7.37 3 3.74 3 0 3 C0 2.01 0 1.02 0 0 Z " fill="#242725" transform="translate(282,433)"/>
<path d="M0 0 C0.33 0 0.66 0 1 0 C1 1.98 1 3.96 1 6 C-0.65 6 -2.3 6 -4 6 C-2.69593116 3.98079663 -1.36176581 1.98075027 0 0 Z " fill="#CC1218" transform="translate(628,394)"/>
<path d="M0 0 C2 3 2 3 1.625 6.1875 C1.41875 7.115625 1.2125 8.04375 1 9 C0.01 9 -0.98 9 -2 9 C-1.34 6.03 -0.68 3.06 0 0 Z " fill="#232423" transform="translate(531,364)"/>
<path d="M0 0 C2 2 2 2 2.125 5.625 C2.08375 6.73875 2.0425 7.8525 2 9 C1.01 8.67 0.02 8.34 -1 8 C-1.125 2.25 -1.125 2.25 0 0 Z " fill="#30312F" transform="translate(416,342)"/>
</svg>
